<?xml version="1.0" encoding="UTF-8" standalone="no"?>
<!DOCTYPE svg PUBLIC "-//W3C//DTD SVG 1.1//EN" "http://www.w3.org/Graphics/SVG/1.1/DTD/svg11.dtd">
<svg version="1.1" xmlns="http://www.w3.org/2000/svg" xmlns:xlink="http://www.w3.org/1999/xlink" preserveAspectRatio="xMidYMid meet" viewBox="0 0 512 512" width="512" height="512"><defs><path d="M56.4 141.3L56 371.5L255.6 486.2L455.6 370.7L456 140.5L256.4 25.8L56.4 141.3Z" id="b9O5y5TSST"></path><path d="M347.39 392.46C343.92 394.86 339.95 396.02 336.02 396.02C329.67 396.02 323.45 393.01 319.56 387.4C313.99 379.36 286.16 339.16 236.07 266.81L196 307.81C196 348.73 196 371.46 196 376C196 387.05 187.06 396 176 396C164.94 396 156 387.05 156 376C156 352 156 159.99 156 135.99C156 124.95 164.94 115.99 176 115.99C187.06 115.99 196 124.95 196 136C196 143.63 196 181.82 196 250.56C271.42 173.42 313.32 130.57 321.7 122C329.39 114.11 342.09 113.96 349.98 121.68C357.87 129.4 358.03 142.07 350.3 149.97C344.58 155.81 315.99 185.04 264.54 237.66L352.45 364.63C355.13 378.99 353.45 388.27 347.39 392.46Z" id="nWQ6J3g1H"></path></defs><g><g><g><use xlink:href="#b9O5y5TSST" opacity="1" fill="#222222" fill-opacity="1"></use><g><use xlink:href="#b9O5y5TSST" opacity="1" fill-opacity="0" stroke="#000000" stroke-width="1" stroke-opacity="0"></use></g></g><g><use xlink:href="#nWQ6J3g1H" opacity="1" fill="#ffffff" fill-opacity="1"></use><g><use xlink:href="#nWQ6J3g1H" opacity="1" fill-opacity="0" stroke="#000000" stroke-width="1" stroke-opacity="0"></use></g></g></g></g></svg>